<svg width="13" height="14" viewBox="0 0 13 14" fill="none" xmlns="http://www.w3.org/2000/svg">
<path d="M4.35586 0.147614C4.56914 -0.0519949 4.9 -0.0492606 5.11328 0.150349C5.86797 0.858552 6.57617 1.62144 7.23789 2.44722C7.53867 2.05347 7.88047 1.62418 8.24961 1.27418C8.46563 1.07183 8.79922 1.07183 9.01523 1.27691C9.96133 2.17926 10.7625 3.37144 11.3258 4.50347C11.8809 5.6191 12.25 6.75933 12.25 7.56324C12.25 11.0523 9.52109 14 6.125 14C2.69062 14 0 11.0496 0 7.56051C0 6.51051 0.486719 5.22808 1.24141 3.95933C2.0043 2.67144 3.08164 1.32886 4.35586 0.147614ZM6.17148 11.375C6.86328 11.375 7.47578 11.1836 8.05273 10.8007C9.20391 9.99683 9.51289 8.38902 8.82109 7.12574C8.69805 6.87965 8.38359 6.86324 8.20586 7.07105L7.5168 7.87222C7.33633 8.08004 7.01094 8.07457 6.84141 7.85855C6.39023 7.28433 5.58359 6.25894 5.12422 5.67652C4.95195 5.45777 4.62383 5.45504 4.44883 5.67379C3.52461 6.8359 3.05977 7.56871 3.05977 8.39176C3.0625 10.2648 4.44609 11.375 6.17148 11.375Z" fill="#F97316"/>
</svg>
