<svg width="30" height="30" viewBox="0 0 30 30" fill="none" xmlns="http://www.w3.org/2000/svg">
<path d="M30 9.11179L29.9941 13.3657C29.9883 16.4243 28.5879 19.2837 26.2441 21.1645C26.25 21.0532 26.25 20.9419 26.25 20.8305V20.3618C26.25 16.1548 24.082 12.2407 20.5137 10.0083L16.9863 7.80515C16.4824 7.48874 15.9375 7.31296 15.3867 7.25437L12.6973 2.59617C12.3105 1.92234 12.5391 1.06101 13.2129 0.67429C13.8867 0.287571 14.748 0.516087 15.1348 1.18991L19.7051 9.10593C19.8984 9.43991 20.332 9.5571 20.666 9.36374C21 9.17038 21.1172 8.73679 20.9238 8.40281L17.291 2.10984C16.9043 1.43601 17.1328 0.574681 17.8066 0.187962C18.4805 -0.198757 19.3359 0.0297588 19.7227 0.703587L23.707 7.60593L26.2441 12.0005L26.25 9.11179C26.25 8.07468 27.0938 7.23679 28.125 7.23679C29.1562 7.23679 30 8.08054 30 9.11179ZM12.416 4.92234L13.8574 7.41257C13.043 7.67624 12.3105 8.21531 11.8242 8.9946C11.7715 9.07663 11.7246 9.16452 11.6777 9.25241L9.98438 6.32273C9.59766 5.6489 9.82617 4.78757 10.5 4.40085C11.1738 4.01413 12.0352 4.24265 12.4219 4.91648L12.416 4.92234ZM9.69727 8.65476L11.2676 11.3735C11.3027 11.7251 11.3906 12.0649 11.5195 12.393H11.25H10.4707H8.61328L7.26562 10.061C6.87891 9.38718 7.10742 8.52585 7.78125 8.13913C8.45508 7.75241 9.31641 7.98093 9.70312 8.65476H9.69727ZM13.4121 9.9907C13.9629 9.11179 15.1172 8.84812 15.9961 9.39304L19.5234 11.5962C22.541 13.4887 24.375 16.7993 24.375 20.3618V20.8305C24.375 25.7466 20.3848 29.7368 15.4688 29.7368H5.15625C4.37695 29.7368 3.75 29.1098 3.75 28.3305C3.75 27.5512 4.37695 26.9243 5.15625 26.9243H10.5469C10.9336 26.9243 11.25 26.6079 11.25 26.2212C11.25 25.8344 10.9336 25.518 10.5469 25.518H3.28125C2.50195 25.518 1.875 24.8911 1.875 24.1118C1.875 23.3325 2.50195 22.7055 3.28125 22.7055H10.5469C10.9336 22.7055 11.25 22.3891 11.25 22.0024C11.25 21.6157 10.9336 21.2993 10.5469 21.2993H1.40625C0.626953 21.2993 0 20.6723 0 19.893C0 19.1137 0.626953 18.4868 1.40625 18.4868H10.5469C10.9336 18.4868 11.25 18.1704 11.25 17.7837C11.25 17.3969 10.9336 17.0805 10.5469 17.0805H3.28125C2.50195 17.0805 1.875 16.4536 1.875 15.6743C1.875 14.895 2.50195 14.268 3.28125 14.268H11.25H16.7109L14.0039 12.5747C13.125 12.0239 12.8613 10.8696 13.4062 9.9907H13.4121Z" fill="#D97757"/>
</svg>
